{"title":"Dawn Of The Dead (1978) Directors Cut - (AC-3)  [akhiugo]","uid":4734817,"size":1048236079,"categoryP":"video","categoryS":"movies","magnet":"?xt=urn:btih:3d6064f23f304bbb19bd0e08f2d4feb00891b2b1&amp;dn=Dawn+Of+The+Dead+%281978%29+Directors+Cut+-+%28AC-3%29++%5Bakhiugo%5D&amp;tr=udp%3A%2F%2Ftracker.openbittorrent.com%3A80&amp;tr=udp%3A%2F%2Fopen.demonii.com%3A1337&amp;tr=udp%3A%2F%2Ftracker.coppersurfer.tk%3A6969&amp;tr=udp%3A%2F%2Fexodus.desync.com%3A6969","seeders":14,"leechers":0,"uploader":"akhiugo","files":-1,"time":1235229149,"description":"Following the events of Night of the Living Dead (1968), we follow the exploits of four survivors of the expanding zombie apocalypse as they take refuge in an abandoned shopping mall following a horrific SWAT evacuation of an apartment complex. Taking stock of their surroundings, they arm themselves, lock down the mall, and destroy the zombies inside so they can eke out a living--at least for a while. Tensions begin to build as months go on, however, when they come to realize that they've fallen prey to consumerism. Soon afterward, they have even heavier problems to worry about, as a large gang of bikers discovers the mall and invades it, ruining the survivors' best-laid plans and forcing them to fight off both lethal bandits and flesh-eating zombies.\n\n\nIMDB Rating 8.0/10 (34,721 votes)\n\n\nGeneral\nComplete name                    : Dawn Of The Dead (1978).avi\nFormat                           : AVI\nFormat/Info                      : Audio Video Interleave\nFile size                        : 1 000 MiB\nDuration                         : 2h 19mn\nOverall bit rate                 : 1 002 Kbps\nWriting application              : VirtualDubMod 1.5.4.1 (build 2178/release)\nWriting library                  : VirtualDubMod build 2178/release\n\nVideo\nFormat                           : MPEG-4 Visual\nFormat profile                   : Streaming Video@L1\nFormat settings, BVOP            : Yes\nFormat settings, QPel            : No\nFormat settings, GMC             : No warppoints\nFormat settings, Matrix          : Custom\nCodec ID                         : XVID\nCodec ID/Hint                    : XviD\nDuration                         : 2h 19mn\nBit rate                         : 739 Kbps\nWidth                            : 528 pixels\nHeight                           : 400 pixels\nDisplay aspect ratio             : 4/3\nFrame rate                       : 25.000 fps\nResolution                       : 24 bits\nColorimetry                      : 4:2:0\nScan type                        : Progressive\nBits/(Pixel*Frame)               : 0.140\nStream size                      : 737 MiB (74%)\nWriting library                  : XviD 1.2.1 (UTC 2008-12-04)\n\nAudio\nFormat                           : AC-3\nFormat/Info                      : Audio Coding 3\nCodec ID                         : 2000\nDuration                         : 2h 19mn\nBit rate mode                    : Constant\nBit rate                         : 256 Kbps\nChannel(s)                       : 2 channels\nChannel positions                : L R\nSampling rate                    : 48.0 KHz\nStream size                      : 255 MiB (26%)\nAlignment                        : Aligned on interleaves\nInterleave, duration             : 96 ms (2.40 video frames)\nInterleave, preload duration     : 96 ms\n\n\n\nPlease help your fellow pirates by seeding after download!","torrent":{"xt":"urn:btih:3d6064f23f304bbb19bd0e08f2d4feb00891b2b1","amp;dn":"Dawn+Of+The+Dead+%281978%29+Directors+Cut+-+%28AC-3%29++%5Bakhiugo%5D","amp;tr":["udp%3A%2F%2Ftracker.openbittorrent.com%3A80","udp%3A%2F%2Fopen.demonii.com%3A1337","udp%3A%2F%2Ftracker.coppersurfer.tk%3A6969","udp%3A%2F%2Fexodus.desync.com%3A6969"],"infoHash":"3d6064f23f304bbb19bd0e08f2d4feb00891b2b1","infoHashBuffer":{"type":"Buffer","data":[61,96,100,242,63,48,75,187,25,189,14,8,242,212,254,176,8,145,178,177]},"announce":[],"urlList":[]}}